<?xml version="1.0" encoding="UTF-8" standalone="no"?>
<!-- Created with Inkscape (http://www.inkscape.org/) -->

<svg
   xmlns:dc="http://purl.org/dc/elements/1.1/"
   xmlns:cc="http://creativecommons.org/ns#"
   xmlns:rdf="http://www.w3.org/1999/02/22-rdf-syntax-ns#"
   xmlns:svg="http://www.w3.org/2000/svg"
   xmlns="http://www.w3.org/2000/svg"
   xmlns:sodipodi="http://sodipodi.sourceforge.net/DTD/sodipodi-0.dtd"
   xmlns:inkscape="http://www.inkscape.org/namespaces/inkscape"
   id="svg2985"
   version="1.1"
   inkscape:version="0.48.2 r9819"
   width="999.99994"
   height="836.1272"
   xml:space="preserve"
   sodipodi:docname="A.svg"><metadata
     id="metadata2991"><rdf:RDF><cc:Work
         rdf:about=""><dc:format>image/svg+xml</dc:format><dc:type
           rdf:resource="http://purl.org/dc/dcmitype/StillImage" /><dc:title></dc:title></cc:Work></rdf:RDF></metadata><defs
     id="defs2989"><clipPath
       clipPathUnits="userSpaceOnUse"
       id="clipPath10103"><path
         inkscape:connector-curvature="0"
         d="m 331.654,98.875 199.934,0 0,65.624 -199.934,0 0,-65.624 z"
         id="path10105" /></clipPath></defs><sodipodi:namedview
     pagecolor="#ffffff"
     bordercolor="#666666"
     borderopacity="1"
     objecttolerance="10"
     gridtolerance="10"
     guidetolerance="10"
     inkscape:pageopacity="0"
     inkscape:pageshadow="2"
     inkscape:window-width="1056"
     inkscape:window-height="1039"
     id="namedview2987"
     showgrid="false"
     fit-margin-left="0.5"
     fit-margin-bottom="0.5"
     fit-margin-top="0.5"
     fit-margin-right="0.5"
     inkscape:zoom="0.36787411"
     inkscape:cx="763.87114"
     inkscape:cy="452.85922"
     inkscape:window-x="862"
     inkscape:window-y="-16"
     inkscape:window-maximized="0"
     inkscape:current-layer="g2993" /><g
     id="g2993"
     inkscape:groupmode="layer"
     inkscape:label="19507738800_UK"
     transform="matrix(1.25,0,0,-1.25,-374.71351,1091.3617)"><g
       transform="matrix(15.491554,0,0,15.491554,-4841.394,-1675.6362)"
       id="g10099"><g
         id="g10101"
         clip-path="url(#clipPath10103)"><g
           id="g10107"
           transform="translate(332.119,140.1243)"><path
             inkscape:connector-curvature="0"
             d="m 0,0 0,-1.032 c 3.103,0.791 6.377,2.656 8.158,4.326 1.225,1.146 2.249,2.45 3.082,3.999 0.01,0.02 0.05,0.086 0.063,0.105 0.739,1.421 1.319,3.07 1.727,5.009 1.109,5.358 -0.54,10.791 -0.928,11.448 -0.327,0.555 -0.938,0.52 -1.36,0.517 -0.098,0 -0.197,0 -0.294,0 l -10.448,0 0,-12.296 8.054,0 c 0.041,0 0.195,-0.008 0.234,-0.021 C 8.555,12.01 8.758,11.819 8.804,11.577 8.821,11.503 8.829,11.422 8.824,11.34 8.758,8.935 7.521,4.089 0.629,0.995 L 0,0.726 0,0 z"
             style="fill:#000000;fill-opacity:1;fill-rule:nonzero;stroke:none"
             id="path10109" /></g></g></g><g
       id="g10111"
       transform="matrix(15.491554,0,0,15.491554,303.64571,387.85116)"><path
         inkscape:connector-curvature="0"
         d="m 0,0 2.701,0 0,-0.438 -2.18,0 0,-1.244 2.032,0 0,-0.438 -2.032,0 0,-1.354 2.197,0 0,-0.438 L 0,-3.912 0,0 z"
         style="fill:#000000;fill-opacity:1;fill-rule:nonzero;stroke:none"
         id="path10113" /></g><g
       id="g10115"
       transform="matrix(15.491554,0,0,15.491554,370.90384,381.06276)"><path
         inkscape:connector-curvature="0"
         d="m 0,0 -1.304,0 0,0.438 3.129,0 0,-0.438 -1.304,0 0,-3.474 L 0,-3.474 0,0 z"
         style="fill:#000000;fill-opacity:1;fill-rule:nonzero;stroke:none"
         id="path10117" /></g><g
       id="g10119"
       transform="matrix(15.491554,0,0,15.491554,410.17633,352.2903)"><path
         inkscape:connector-curvature="0"
         d="M 0,0 1.326,0 0.674,1.824 0.663,1.824 0,0 z m 0.389,2.296 0.576,0 1.528,-3.912 -0.576,0 -0.426,1.178 -1.655,0 -0.438,-1.178 -0.537,0 1.528,3.912 z"
         style="fill:#000000;fill-opacity:1;fill-rule:nonzero;stroke:none"
         id="path10121" /></g><g
       id="g10123"
       transform="matrix(15.491554,0,0,15.491554,462.34739,381.06276)"><path
         inkscape:connector-curvature="0"
         d="m 0,0 -1.304,0 0,0.438 3.129,0 0,-0.438 -1.304,0 0,-3.474 L 0,-3.474 0,0 z"
         style="fill:#000000;fill-opacity:1;fill-rule:nonzero;stroke:none"
         id="path10125" /></g><g
       id="g10135"
       transform="matrix(15.491554,0,0,15.491554,532.29935,334.03815)"><path
         inkscape:connector-curvature="0"
         d="m 0,0 0.865,0 c 0.357,0 1.316,0.099 1.316,1.54 0,0.931 -0.346,1.496 -1.305,1.496 L 0,3.036 0,0 z m -0.521,3.474 1.343,0 c 1.205,0 1.879,-0.603 1.879,-1.863 0,-1.31 -0.575,-2.049 -1.879,-2.049 l -1.343,0 0,3.912 z"
         style="fill:#000000;fill-opacity:1;fill-rule:nonzero;stroke:none"
         id="path10137" /></g><g
       id="g10139"
       transform="matrix(15.491554,0,0,15.491554,585.62453,387.85116)"><path
         inkscape:connector-curvature="0"
         d="m 0,0 2.701,0 0,-0.438 -2.18,0 0,-1.244 2.032,0 0,-0.438 -2.032,0 0,-1.354 2.197,0 0,-0.438 L 0,-3.912 0,0 z"
         style="fill:#000000;fill-opacity:1;fill-rule:nonzero;stroke:none"
         id="path10141" /></g><g
       id="g10143"
       transform="matrix(15.491554,0,0,15.491554,664.40219,387.85116)"><path
         inkscape:connector-curvature="0"
         d="m 0,0 2.57,0 0,-0.438 -2.049,0 0,-1.244 1.797,0 0,-0.438 -1.797,0 0,-1.792 L 0,-3.912 0,0 z"
         style="fill:#000000;fill-opacity:1;fill-rule:nonzero;stroke:none"
         id="path10145" /></g><g
       id="g10147"
       transform="matrix(15.491554,0,0,15.491554,739.64467,359.93073)"><path
         inkscape:connector-curvature="0"
         d="m 0,0 c 0.487,0 0.904,0.126 0.904,0.696 0,0.383 -0.208,0.668 -0.696,0.668 l -1.293,0 L -1.085,0 0,0 z m -1.605,1.802 1.84,0 c 0.735,0 1.189,-0.4 1.189,-1.024 0,-0.471 -0.208,-0.86 -0.679,-0.992 l 0,-0.011 c 0.454,-0.087 0.548,-0.422 0.586,-0.805 0.033,-0.384 0.011,-0.811 0.23,-1.08 l -0.58,0 C 0.833,-1.951 0.915,-1.529 0.838,-1.145 0.783,-0.761 0.69,-0.438 0.186,-0.438 l -1.271,0 0,-1.672 -0.52,0 0,3.912 z"
         style="fill:#000000;fill-opacity:1;fill-rule:nonzero;stroke:none"
         id="path10149" /></g><path
       inkscape:connector-curvature="0"
       d="m 774.8988,387.85426 8.0711,0 0,-60.60296 -8.0711,0 0,60.60296 z"
       style="fill:#000000;fill-opacity:1;fill-rule:nonzero;stroke:none"
       id="path10151" /><g
       id="g10153"
       transform="matrix(15.491554,0,0,15.491554,806.27059,334.03815)"><path
         inkscape:connector-curvature="0"
         d="m 0,0 1.304,0 c 0.449,0 0.734,0.274 0.734,0.701 0,0.51 -0.411,0.653 -0.849,0.653 L 0,1.354 0,0 z m 0,1.792 1.041,0 c 0.592,0 0.833,0.214 0.833,0.624 0,0.543 -0.384,0.62 -0.833,0.62 L 0,3.036 0,1.792 z m -0.521,1.682 1.42,0 c 0.344,0 0.799,0 1.035,-0.142 0.258,-0.154 0.46,-0.434 0.46,-0.817 0,-0.416 -0.219,-0.728 -0.58,-0.876 l 0,-0.011 C 2.296,1.529 2.559,1.167 2.559,0.685 2.559,0.11 2.148,-0.438 1.37,-0.438 l -1.891,0 0,3.912 z"
         style="fill:#000000;fill-opacity:1;fill-rule:nonzero;stroke:none"
         id="path10155" /></g><g
       id="g10157"
       transform="matrix(15.491554,0,0,15.491554,883.62472,332.59743)"><path
         inkscape:connector-curvature="0"
         d="M 0,0 C 0.953,0 1.353,0.822 1.353,1.611 1.353,2.4 0.953,3.221 0,3.221 -0.954,3.221 -1.354,2.4 -1.354,1.611 -1.354,0.822 -0.954,0 0,0 m 0,3.66 c 1.243,0 1.874,-0.986 1.874,-2.049 0,-1.063 -0.631,-2.049 -1.874,-2.049 -1.244,0 -1.874,0.986 -1.874,2.049 0,1.063 0.63,2.049 1.874,2.049"
         style="fill:#000000;fill-opacity:1;fill-rule:nonzero;stroke:none"
         id="path10159" /></g><g
       id="g10161"
       transform="matrix(15.491554,0,0,15.491554,972.50597,349.15016)"><path
         inkscape:connector-curvature="0"
         d="m 0,0 c 0,-0.986 -0.564,-1.507 -1.539,-1.507 -1.008,0 -1.606,0.466 -1.606,1.507 l 0,2.498 0.521,0 0,-2.498 c 0,-0.69 0.395,-1.068 1.085,-1.068 0.657,0 1.019,0.378 1.019,1.068 l 0,2.498 0.52,0 L 0,0 z"
         style="fill:#000000;fill-opacity:1;fill-rule:nonzero;stroke:none"
         id="path10163" /></g><g
       id="g10165"
       transform="matrix(15.491554,0,0,15.491554,1011.9165,359.93073)"><path
         inkscape:connector-curvature="0"
         d="m 0,0 c 0.487,0 0.904,0.126 0.904,0.696 0,0.383 -0.208,0.668 -0.696,0.668 l -1.293,0 L -1.085,0 0,0 z m -1.605,1.802 1.84,0 c 0.735,0 1.19,-0.4 1.19,-1.024 0,-0.471 -0.209,-0.86 -0.68,-0.992 l 0,-0.011 C 1.2,-0.312 1.293,-0.647 1.331,-1.03 1.364,-1.414 1.342,-1.841 1.562,-2.11 l -0.581,0 C 0.833,-1.951 0.915,-1.529 0.838,-1.145 0.783,-0.761 0.69,-0.438 0.186,-0.438 l -1.271,0 0,-1.672 -0.52,0 0,3.912 z"
         style="fill:#000000;fill-opacity:1;fill-rule:nonzero;stroke:none"
         id="path10167" /></g><g
       id="g10169"
       transform="matrix(15.491554,0,0,15.491554,1092.1517,334.81118)"><path
         inkscape:connector-curvature="0"
         d="m 0,0 c -0.301,-0.412 -0.794,-0.581 -1.255,-0.581 -1.167,0 -1.863,0.953 -1.863,1.972 0,1.14 0.625,2.126 1.863,2.126 0.855,0 1.535,-0.383 1.683,-1.299 l -0.521,0 c -0.104,0.592 -0.581,0.861 -1.162,0.861 -0.947,0 -1.342,-0.822 -1.342,-1.66 0,-0.817 0.471,-1.562 1.342,-1.562 0.806,0 1.288,0.564 1.255,1.277 l -1.249,0 0,0.438 1.715,0 0,-2.06 -0.329,0 L 0,0 z"
         style="fill:#000000;fill-opacity:1;fill-rule:nonzero;stroke:none"
         id="path10171" /></g><g
       id="g10173"
       transform="matrix(15.491554,0,0,15.491554,338.6983,248.89501)"><path
         inkscape:connector-curvature="0"
         d="m 0,0 c -0.06,0.558 -0.433,0.8 -0.969,0.8 -0.439,0 -0.877,-0.159 -0.877,-0.669 0,-0.482 0.624,-0.553 1.255,-0.695 0.624,-0.142 1.249,-0.362 1.249,-1.129 0,-0.833 -0.817,-1.167 -1.529,-1.167 -0.877,0 -1.616,0.427 -1.616,1.381 l 0.493,0 c 0,-0.657 0.548,-0.943 1.14,-0.943 0.47,0 0.991,0.148 0.991,0.712 0,0.538 -0.624,0.631 -1.249,0.767 -0.625,0.138 -1.255,0.319 -1.255,1.036 0,0.794 0.707,1.145 1.42,1.145 C -0.148,1.238 0.46,0.86 0.493,0 L 0,0 z"
         style="fill:#000000;fill-opacity:1;fill-rule:nonzero;stroke:none"
         id="path10175" /></g><g
       id="g10177"
       transform="matrix(15.491554,0,0,15.491554,370.64978,259.84599)"><path
         inkscape:connector-curvature="0"
         d="m 0,0 -1.304,0 0,0.438 3.129,0 0,-0.438 -1.304,0 0,-3.473 L 0,-3.473 0,0 z"
         style="fill:#000000;fill-opacity:1;fill-rule:nonzero;stroke:none"
         id="path10179" /></g><g
       id="g10181"
       transform="matrix(15.491554,0,0,15.491554,409.92087,231.07198)"><path
         inkscape:connector-curvature="0"
         d="M 0,0 1.326,0 0.674,1.825 0.663,1.825 0,0 z m 0.389,2.295 0.576,0 1.528,-3.911 -0.575,0 -0.427,1.178 -1.655,0 -0.438,-1.178 -0.537,0 1.528,3.911 z"
         style="fill:#000000;fill-opacity:1;fill-rule:nonzero;stroke:none"
         id="path10183" /></g><g
       id="g10185"
       transform="matrix(15.491554,0,0,15.491554,466.56729,231.07198)"><path
         inkscape:connector-curvature="0"
         d="M 0,0 1.326,0 0.674,1.825 0.663,1.825 0,0 z m 0.389,2.295 0.575,0 1.529,-3.911 -0.576,0 -0.427,1.178 -1.654,0 -0.439,-1.178 -0.537,0 1.529,3.911 z"
         style="fill:#000000;fill-opacity:1;fill-rule:nonzero;stroke:none"
         id="path10187" /></g><g
       id="g10189"
       transform="matrix(15.491554,0,0,15.491554,518.73804,259.84599)"><path
         inkscape:connector-curvature="0"
         d="m 0,0 -1.304,0 0,0.438 3.128,0 0,-0.438 -1.304,0 0,-3.473 -0.52,0 L 0,0 z"
         style="fill:#000000;fill-opacity:1;fill-rule:nonzero;stroke:none"
         id="path10191" /></g><g
       id="g10193"
       transform="matrix(15.491554,0,0,15.491554,580.62076,266.62355)"><path
         inkscape:connector-curvature="0"
         d="m 0,0 2.57,0 0,-0.438 -2.049,0 0,-1.243 1.797,0 0,-0.439 -1.797,0 0,-1.791 L 0,-3.911 0,0 z"
         style="fill:#000000;fill-opacity:1;fill-rule:nonzero;stroke:none"
         id="path10195" /></g><g
       id="g10197"
       transform="matrix(15.491554,0,0,15.491554,655.86169,238.71861)"><path
         inkscape:connector-curvature="0"
         d="m 0,0 c 0.487,0 0.904,0.126 0.904,0.695 0,0.383 -0.208,0.669 -0.696,0.669 l -1.293,0 L -1.085,0 0,0 z m -1.605,1.801 1.84,0 c 0.735,0 1.19,-0.399 1.19,-1.024 0,-0.471 -0.209,-0.859 -0.68,-0.991 l 0,-0.011 C 1.2,-0.313 1.293,-0.647 1.331,-1.031 1.364,-1.414 1.342,-1.842 1.562,-2.11 l -0.581,0 C 0.833,-1.951 0.915,-1.529 0.838,-1.146 0.783,-0.762 0.69,-0.439 0.186,-0.439 l -1.271,0 0,-1.671 -0.52,0 0,3.911 z"
         style="fill:#000000;fill-opacity:1;fill-rule:nonzero;stroke:none"
         id="path10199" /></g><g
       id="g10201"
       transform="matrix(15.491554,0,0,15.491554,690.77176,266.62355)"><path
         inkscape:connector-curvature="0"
         d="m 0,0 2.701,0 0,-0.438 -2.18,0 0,-1.243 2.032,0 0,-0.439 -2.032,0 0,-1.353 2.197,0 0,-0.438 L 0,-3.911 0,0 z"
         style="fill:#000000;fill-opacity:1;fill-rule:nonzero;stroke:none"
         id="path10203" /></g><path
       inkscape:connector-curvature="0"
       d="m 744.6283,266.61735 8.0711,0 0,-60.58747 -8.0711,0 0,60.58747 z"
       style="fill:#000000;fill-opacity:1;fill-rule:nonzero;stroke:none"
       id="path10205" /><g
       id="g10207"
       transform="matrix(15.491554,0,0,15.491554,775.9987,212.82603)"><path
         inkscape:connector-curvature="0"
         d="m 0,0 1.304,0 c 0.449,0 0.734,0.274 0.734,0.701 0,0.51 -0.411,0.652 -0.849,0.652 L 0,1.353 0,0 z m 0,1.792 1.041,0 c 0.592,0 0.833,0.213 0.833,0.624 0,0.542 -0.384,0.619 -0.833,0.619 L 0,3.035 0,1.792 z m -0.521,1.681 1.42,0 c 0.344,0 0.799,0 1.035,-0.143 0.258,-0.153 0.46,-0.432 0.46,-0.816 0,-0.416 -0.219,-0.728 -0.58,-0.875 l 0,-0.011 C 2.296,1.529 2.559,1.167 2.559,0.684 2.559,0.109 2.148,-0.438 1.37,-0.438 l -1.891,0 0,3.911 z"
         style="fill:#000000;fill-opacity:1;fill-rule:nonzero;stroke:none"
         id="path10209" /></g><g
       id="g10211"
       transform="matrix(15.491554,0,0,15.491554,876.09583,227.93804)"><path
         inkscape:connector-curvature="0"
         d="m 0,0 c 0,-0.987 -0.564,-1.507 -1.539,-1.507 -1.008,0 -1.606,0.465 -1.606,1.507 l 0,2.497 0.521,0 0,-2.497 c 0,-0.69 0.394,-1.069 1.085,-1.069 0.657,0 1.018,0.379 1.018,1.069 l 0,2.497 L 0,2.497 0,0 z"
         style="fill:#000000;fill-opacity:1;fill-rule:nonzero;stroke:none"
         id="path10213" /></g><g
       id="g10215"
       transform="matrix(15.491554,0,0,15.491554,915.50634,238.71861)"><path
         inkscape:connector-curvature="0"
         d="m 0,0 c 0.487,0 0.904,0.126 0.904,0.695 0,0.383 -0.208,0.669 -0.696,0.669 l -1.293,0 L -1.085,0 0,0 z m -1.605,1.801 1.841,0 c 0.734,0 1.188,-0.399 1.188,-1.024 0,-0.471 -0.208,-0.859 -0.679,-0.991 l 0,-0.011 c 0.454,-0.088 0.548,-0.422 0.586,-0.806 0.033,-0.383 0.011,-0.811 0.23,-1.079 l -0.58,0 C 0.833,-1.951 0.915,-1.529 0.838,-1.146 0.783,-0.762 0.69,-0.439 0.186,-0.439 l -1.271,0 0,-1.671 -0.52,0 0,3.911 z"
         style="fill:#000000;fill-opacity:1;fill-rule:nonzero;stroke:none"
         id="path10217" /></g><g
       id="g10219"
       transform="matrix(15.491554,0,0,15.491554,995.7402,213.58821)"><path
         inkscape:connector-curvature="0"
         d="m 0,0 c -0.301,-0.411 -0.794,-0.581 -1.255,-0.581 -1.167,0 -1.863,0.954 -1.863,1.973 0,1.139 0.625,2.125 1.863,2.125 0.855,0 1.535,-0.383 1.682,-1.299 l -0.52,0 c -0.104,0.592 -0.581,0.861 -1.162,0.861 -0.947,0 -1.342,-0.822 -1.342,-1.66 0,-0.817 0.471,-1.562 1.342,-1.562 0.806,0 1.288,0.565 1.255,1.277 l -1.249,0 0,0.439 1.715,0 0,-2.06 -0.329,0 L 0,0 z"
         style="fill:#000000;fill-opacity:1;fill-rule:nonzero;stroke:none"
         id="path10221" /></g></g></svg>