<?xml version="1.0" encoding="UTF-8" standalone="no"?>
<!-- Created with Inkscape (http://www.inkscape.org/) -->

<svg
   width="649.78918mm"
   height="137.00528mm"
   viewBox="0 0 649.78918 137.00528"
   version="1.1"
   id="svg5"
   inkscape:version="1.1.2 (b8e25be833, 2022-02-05)"
   sodipodi:docname="Robalex_vectorisé.svg"
   xmlns:inkscape="http://www.inkscape.org/namespaces/inkscape"
   xmlns:sodipodi="http://sodipodi.sourceforge.net/DTD/sodipodi-0.dtd"
   xmlns="http://www.w3.org/2000/svg"
   xmlns:svg="http://www.w3.org/2000/svg">
  <sodipodi:namedview
     id="namedview7"
     pagecolor="#ffffff"
     bordercolor="#999999"
     borderopacity="1"
     inkscape:pageshadow="0"
     inkscape:pageopacity="0"
     inkscape:pagecheckerboard="0"
     inkscape:document-units="mm"
     showgrid="false"
     inkscape:snap-global="false"
     fit-margin-top="0"
     fit-margin-left="0"
     fit-margin-right="0"
     fit-margin-bottom="0"
     inkscape:zoom="0.5"
     inkscape:cx="935"
     inkscape:cy="-20"
     inkscape:window-width="1920"
     inkscape:window-height="1017"
     inkscape:window-x="-8"
     inkscape:window-y="-8"
     inkscape:window-maximized="1"
     inkscape:current-layer="layer1" />
  <defs
     id="defs2" />
  <g
     inkscape:label="Calque 1"
     inkscape:groupmode="layer"
     id="layer1"
     transform="translate(205.02482,-54.427196)">
    <g
       id="g147"
       transform="translate(1.634232,0.00801992)">
      <path
         style="fill:#fe020a;stroke-width:0.264583"
         d="m -67.383419,149.88415 c -2.784957,-0.37218 -8.164727,-1.77029 -10.847917,-2.81918 -15.063822,-5.88863 -26.064834,-18.76309 -29.458624,-34.47537 -4.58831,-21.242611 5.9653,-43.039592 25.489874,-52.645664 3.839882,-1.88922 6.703197,-2.901639 10.81378,-3.823567 8.481727,-1.902297 17.458301,-1.38833 25.762458,1.475065 16.3204,5.627512 28.275858,19.57619 31.434033,36.67473 0.66345,3.591965 0.798229,10.926456 0.270145,14.700956 -1.04928,7.49974 -3.547359,14.01727 -7.787834,20.31858 -6.960872,10.34379 -17.931648,17.60611 -30.36221,20.09886 -3.268179,0.65538 -12.002831,0.93806 -15.313705,0.49559 z m 12.852432,-10.67443 c 12.550904,-2.25541 23.41558,-11.19236 27.998878,-23.03102 5.503722,-14.2161 1.940081,-30.127657 -9.084879,-40.563699 -4.980581,-4.714535 -11.226435,-7.97932 -18.147494,-9.485917 -3.173325,-0.690779 -11.345225,-0.700066 -14.544979,-0.01653 -13.629529,2.911557 -24.37007,12.58051 -28.269169,25.448743 -1.351632,4.460806 -1.489805,5.47683 -1.493239,10.980203 -0.0035,5.69273 0.291727,7.70619 1.76548,12.03855 2.851213,8.38166 8.898014,15.73083 16.685046,20.2787 3.899299,2.27732 9.432107,4.10732 14.246217,4.71201 2.447047,0.30737 8.188291,0.11622 10.844139,-0.36104 z m 434.072027,5.83859 -1.8089,-4.84519 11.31184,-17.57374 c 6.22152,-9.66556 11.31183,-17.69366 11.31183,-17.84021 0,-0.14656 -5.03523,-7.817886 -11.18938,-17.047397 l -11.18942,-16.780928 0.46808,-5.1779 c 0.25744,-2.847845 0.50286,-5.220056 0.54541,-5.27158 0.0425,-0.05152 2.97206,0.874672 6.51005,2.058212 l 6.4327,2.151892 8.7081,13.090293 c 4.78944,7.199659 8.77803,13.020683 8.86354,12.935609 0.0855,-0.08507 3.73058,-5.711277 8.10017,-12.502671 l 7.94475,-12.347989 5.94588,-3.103847 c 3.27025,-1.707117 6.00543,-3.10571 6.07819,-3.107986 0.0728,-0.0023 0.95094,2.156709 1.95149,4.797743 1.78789,4.719213 1.8116,4.814771 1.37694,5.550586 -0.24326,0.411788 -5.36948,8.384184 -11.39163,17.716432 l -10.94939,16.967731 11.34137,17.00895 c 6.23773,9.35493 11.29921,17.05109 11.24773,17.10258 -0.0515,0.0515 -0.29099,2.23656 -0.53221,4.85571 -0.24122,2.61916 -0.4826,4.90377 -0.53639,5.07691 -0.0659,0.21208 -2.16639,-0.37534 -6.43636,-1.79999 l -6.33852,-2.11481 -8.7883,-13.10836 c -7.11747,-10.61625 -8.84973,-13.04063 -9.11145,-12.75209 -0.17775,0.19595 -3.85035,5.83315 -8.16134,12.52711 l -7.83818,12.17083 -5.8919,3.04271 c -3.24056,1.67349 -5.95354,3.07058 -6.02887,3.10464 -0.0753,0.0341 -0.95094,-2.1184 -1.94583,-4.78325 z m 53.36178,-5.51019 c 2.05975,-0.89791 3.78277,-1.65997 3.82894,-1.69347 0.0462,-0.0335 -4.87307,-7.49666 -10.9316,-16.58478 L 414.78463,104.736 425.66781,87.869678 c 5.98578,-9.276474 10.81808,-16.931432 10.73852,-17.011016 -0.30758,-0.307575 -8.71805,-2.192912 -8.90249,-1.99563 -0.1538,0.16453 -12.11162,18.693126 -17.02015,26.372729 l -0.9957,1.557798 -9.50473,-14.257799 c -5.22762,-7.841789 -9.59417,-14.257798 -9.70341,-14.257798 -0.10928,0 -1.95067,0.762288 -4.09197,1.693973 -2.43893,1.061174 -3.82871,1.802456 -3.72041,1.984375 0.0951,0.159721 5.032,7.582253 10.97089,16.494518 5.93892,8.912262 10.79802,16.269242 10.79802,16.348842 0,0.0796 -4.80219,7.61103 -10.67152,16.73651 -5.86933,9.12548 -10.75116,16.7297 -10.84853,16.89826 -0.19698,0.34101 8.56197,2.57166 8.85026,2.25391 0.0894,-0.0985 4.06678,-6.25132 8.83862,-13.67289 4.77187,-7.42156 8.81137,-13.6433 8.97668,-13.82609 0.2318,-0.2563 2.47475,2.9074 9.80112,13.82447 5.22531,7.78626 9.60726,14.15683 9.73767,14.15683 0.13041,0 1.92238,-0.73465 3.98214,-1.63255 z m -333.871364,7.07013 c -2.376487,-0.43496 -3.790659,-1.1638 -5.000387,-2.57708 -1.888595,-2.2064 -2.249937,-6.04735 -0.882332,-9.37882 0.704241,-1.71548 45.330643,-74.22138 47.069533,-76.475284 2.14461,-2.779823 4.64315,-3.961447 7.88585,-3.729431 0.95915,0.06863 2.27868,0.361327 2.93228,0.650448 1.29386,0.572334 3.27117,2.408624 4.46235,4.14411 2.3902,3.482326 45.74622,74.131227 46.30005,75.446187 0.54417,1.29204 0.67085,2.03402 0.68069,3.98661 0.0109,2.15898 -0.0676,2.55509 -0.78441,3.95739 -0.92487,1.80943 -2.40699,3.06337 -4.44068,3.75703 -1.29728,0.44248 -4.13944,0.47241 -48.87011,0.51455 -37.73268,0.0356 -47.87498,-0.0252 -49.352834,-0.29571 z m 93.828684,-8.81101 c -1.47799,-2.65929 -45.24105,-73.672119 -45.40189,-73.672119 -0.16084,0 -43.9239,71.012829 -45.40189,73.672119 -0.24466,0.44017 1.99525,0.46302 45.40189,0.46302 43.40664,0 45.64655,-0.0228 45.40189,-0.46302 z m 148.07468,-22.4893 c 3.09231,-0.0423 8.15247,-0.0423 11.24479,0 3.09232,0.0423 0.56224,0.077 -5.6224,0.077 -6.18463,0 -8.71471,-0.0346 -5.62239,-0.077 z M -165.19657,96.010765 c 0.19099,-0.07643 0.4192,-0.06703 0.50712,0.02088 0.0879,0.08792 -0.0684,0.150452 -0.34727,0.138964 -0.30822,-0.0127 -0.37092,-0.07539 -0.15985,-0.159851 z"
         id="path151" />
      <path
         style="fill:#ffffff;stroke-width:0.264583"
         d="m -192.13446,191.14002 c -3.58455,-0.26734 -10.8717,-1.18032 -13.01699,-1.63085 l -1.5076,-0.31662 2.96158,-5.3327 2.96158,-5.33269 1.23591,0.90724 c 1.78827,1.31271 5.87318,3.15643 8.07921,3.64653 2.57264,0.57156 5.50511,0.55388 6.69464,-0.0403 0.73932,-0.36933 0.92604,-0.61743 0.92604,-1.23042 0,-1.09521 -1.04005,-1.55425 -6.94187,-3.06389 -6.79495,-1.7381 -9.46153,-2.84373 -11.58967,-4.80538 -3.8874,-3.58328 -2.62735,-8.48071 2.93098,-11.39182 3.94853,-2.068 9.25525,-3.0656 17.58494,-3.30574 7.10584,-0.20486 14.32931,0.35592 21.51398,1.67021 1.95528,0.35768 2.30508,0.49636 2.16684,0.85902 -0.27149,0.7122 -5.2016,9.02593 -5.43973,9.17311 -0.12107,0.0748 -0.79227,-0.2159 -1.49155,-0.64607 -1.99302,-1.22601 -5.08999,-2.6152 -6.82767,-3.06266 -3.74937,-0.96546 -7.66107,-0.83446 -8.78991,0.29438 -1.2866,1.2866 -0.0556,1.88654 7.99616,3.89708 3.20146,0.7994 6.7138,1.77156 7.80521,2.16034 3.81739,1.35985 6.22495,3.04546 7.24642,5.07348 0.58612,1.16367 0.55053,3.88334 -0.0685,5.23866 -2.21475,4.84869 -12.01548,7.61609 -26.57302,7.50334 -2.64783,-0.0205 -6.18345,-0.1394 -7.85694,-0.2642 z m 344.35521,0.12185 c -4.49384,-0.28622 -15.61216,-1.71829 -15.94802,-2.05416 -0.13275,-0.13273 5.57889,-10.45535 5.78847,-10.46152 0.0876,-0.003 0.97062,0.52825 1.96234,1.17961 3.71123,2.43754 7.82753,3.69728 11.5045,3.52078 2.32421,-0.11156 3.3242,-0.48514 3.5967,-1.34368 0.35681,-1.12422 -1.25551,-1.94685 -6.07145,-3.09778 -8.69143,-2.07711 -12.83727,-4.17459 -14.28602,-7.2276 -0.66106,-1.39306 -0.62018,-3.60332 0.0939,-5.07843 1.19026,-2.45875 4.87058,-4.86083 9.10781,-5.94454 4.56144,-1.16661 7.57301,-1.44773 15.49656,-1.44651 4.46075,7.9e-4 8.78338,0.14212 10.58334,0.34628 3.1115,0.35294 10.59418,1.54734 10.7652,1.71837 0.0946,0.0946 -5.08404,9.09168 -5.48507,9.52938 -0.11608,0.12669 -0.92739,-0.2048 -1.8029,-0.73666 -4.07932,-2.47805 -7.13827,-3.41105 -11.28244,-3.44124 -2.31744,-0.0169 -3.08563,0.0745 -3.77032,0.44861 -0.90487,0.4944 -1.1172,1.23621 -0.50038,1.74815 0.60714,0.50388 3.27563,1.32982 7.84257,2.4274 9.83279,2.36315 13.86552,4.27949 15.24646,7.24509 1.58115,3.39558 0.19018,6.64997 -3.8853,9.09016 -1.45153,0.86912 -6.18715,2.34723 -8.97991,2.80286 -5.07473,0.82795 -13.82093,1.16745 -19.97604,0.77543 z m 201.25926,-0.11397 c -4.74102,-0.63806 -10.25549,-2.44074 -13.51463,-4.41791 -5.38609,-3.26752 -8.017,-7.01781 -8.017,-11.42807 0,-7.25196 7.67479,-13.2884 19.76821,-15.54827 3.24913,-0.60716 11.68982,-0.60109 15.21669,0.0109 9.19271,1.59525 15.83579,5.54192 18.37978,10.9195 1.04063,2.19973 1.36459,4.89564 0.83519,6.95016 -1.5706,6.0949 -8.56671,10.98623 -18.66183,13.04742 -2.99435,0.61137 -10.95828,0.87647 -14.00641,0.46624 z m 8.81991,-13.98156 c 2.78201,-1.22148 2.813,-3.79958 0.0607,-5.04899 -2.32796,-1.05677 -6.58656,-0.52947 -7.92888,0.98176 -2.67509,3.01171 3.27134,6.08554 7.86821,4.06723 z m -465.60159,13.60426 c -6.79452,-0.92621 -11.97277,-2.73098 -15.97136,-5.56648 -5.44574,-3.86172 -7.20927,-9.53474 -4.60712,-14.82047 2.54193,-5.16337 8.89806,-8.77713 18.39673,-10.45938 4.86989,-0.86248 14.852282,-0.8706 20.384461,-0.0166 3.508047,0.54155 10.33522,2.11517 13.670463,3.15097 l 1.511173,0.46931 -5.320269,4.36562 c -2.926148,2.40109 -5.521171,4.50736 -5.766718,4.68058 -0.35284,0.24893 -0.867497,0.2071 -2.454635,-0.19949 -5.705684,-1.46166 -11.81414,-1.95813 -14.685989,-1.19363 -6.219906,1.65578 -5.981526,6.52764 0.370292,7.56787 2.878754,0.47144 2.711681,0.6022 2.79848,-2.19023 l 0.07608,-2.44739 11.972396,-0.0688 11.972396,-0.0688 v 8.42681 8.42681 l -7.342188,0.17433 c -11.319193,0.26876 -22.066562,0.16948 -25.004192,-0.23097 z m -49.67446,-15.46868 v -15.61041 h 11.77396 11.77396 v 15.61041 15.61042 h -11.77396 -11.77396 z m 87.577086,0 v -15.61041 l 8.929687,0.007 8.929688,0.007 5.253487,4.49042 c 2.88942,2.46975 5.359967,4.49044 5.490105,4.49044 0.13014,0 0.236616,-2.02406 0.236616,-4.49792 v -4.49791 h 11.906251 11.90625 v 15.61041 15.61042 h -9.019085 -9.019088 l -5.334558,-4.52854 -5.334561,-4.52853 -0.07239,4.52853 -0.0724,4.52854 h -11.900001 -11.900003 z m 55.077432,15.38348 c 0.04851,-0.12482 4.1958498,-7.1465 9.2163186,-15.60373 l 9.1281251,-15.37677 16.9808743,-0.007 16.980876,-0.007 8.881303,15.54427 8.881296,15.54427 -11.574675,0.069 c -6.366073,0.038 -11.706471,0.0185 -11.867557,-0.0433 -0.161086,-0.0618 -0.934993,-1.25367 -1.719792,-2.64863 l -1.426908,-2.53631 -8.390155,-7e-5 -8.390154,-6e-5 -1.531721,2.64248 -1.531721,2.64249 -11.8621516,0.003 c -6.5241859,0.002 -11.8224674,-0.0988 -11.7739584,-0.2236 z m 39.114236,-12.63563 c 0,-0.46666 -3.791773,-6.99464 -3.953378,-6.8062 -0.270021,0.31485 -3.984122,6.69633 -3.984122,6.84542 0,0.0678 1.785937,0.12335 3.96875,0.12335 2.182812,0 3.96875,-0.0732 3.96875,-0.16257 z m 33.3375,-2.74785 v -15.61041 h 11.90625 11.906251 v 11.64166 11.64167 h 10.186458 10.186457 v 3.96875 3.96875 H 84.222833 62.130124 Z m 47.360416,0 v -15.61041 h 11.90625 11.90625 v 15.61041 15.61042 h -11.90625 -11.90625 z m 75.67084,15.47024 c 0,-0.0801 4.13739,-7.10601 9.19421,-15.61314 l 9.19422,-15.46751 h 16.94334 16.94336 l 8.57014,15.0151 c 4.71358,8.25831 8.74115,15.283 8.95014,15.61042 l 0.38002,0.59531 -11.87053,-0.004 -11.87053,-0.004 -1.45521,-2.63816 -1.45521,-2.63818 -8.38271,-0.004 -8.38269,-0.004 -1.55694,2.57969 -1.55691,2.57969 -11.82235,0.0689 c -6.5023,0.0379 -11.82235,0.003 -11.82235,-0.0767 z m 39.15833,-12.71245 c 0,-0.16736 -3.07488,-5.77593 -3.58555,-6.54001 -0.27856,-0.41679 -0.56441,-0.0556 -2.33469,2.94964 -1.1095,1.88351 -2.01726,3.49622 -2.01726,3.58379 0,0.0876 1.78594,0.15921 3.96875,0.15921 2.18281,0 3.96875,-0.0687 3.96875,-0.15263 z m 40.21667,4.25367 v -8.59896 h -5.82084 -5.82083 v -7.01145 -7.01146 h 23.41563 23.41562 v 7.01146 7.01145 h -5.68854 -5.68854 v 8.59896 8.59896 h -11.90625 -11.90625 z m 39.42291,-7.01146 v -15.61041 h 11.77396 11.77396 v 15.61041 15.61042 h -11.77396 -11.77396 z m 86.51876,0 v -15.61041 h 8.96971 8.9697 l 5.38395,4.59376 5.38393,4.59377 0.0723,-4.59377 0.0722,-4.59376 H 431.23 443.13014 v 15.61041 15.61042 h -8.96803 -8.96802 l -5.20557,-4.43177 c -2.86306,-2.43747 -5.31636,-4.47146 -5.45177,-4.51996 -0.14571,-0.0522 -0.24619,1.7567 -0.24619,4.43177 v 4.51996 H 402.3843 390.47805 Z m -595.5771,-70.52487 V 62.827187 l 30.22865,0.101823 c 21.84279,0.07358 30.81584,0.190649 32.34531,0.422016 6.21744,0.940526 10.15816,2.562595 14.23181,5.858067 4.04574,3.272895 6.76837,7.324888 8.30212,12.355757 0.6381,2.093029 0.70968,2.743489 0.72155,6.556862 0.0103,3.311401 -0.0914,4.60787 -0.46685,5.953126 -1.05375,3.775292 -3.33074,7.373422 -6.75498,10.674312 -1.03314,0.99593 -1.87844,1.86741 -1.87844,1.93662 0,0.0692 0.75872,1.09984 1.68605,2.29027 7.02558,9.01893 10.39232,16.96102 13.2751,31.31579 0.64814,3.22741 1.17843,5.99561 1.17843,6.15156 0,0.19912 -5.86849,0.28353 -19.71145,0.28353 h -19.71146 v -1.20205 c 0,-2.0759 -0.79724,-8.5781 -1.487,-12.12775 -1.31119,-6.74776 -3.27481,-11.4479 -5.9996,-14.36071 -1.71707,-1.83555 -3.0653,-2.60199 -5.30564,-3.01614 -2.82396,-0.52204 -2.5536,-2.15025 -2.5536,15.37865 v 15.328 h -19.05 -19.05 z m 44.39995,-9.690869 c 2.76834,-1.319332 4.22722,-4.079955 3.95411,-7.482308 -0.32132,-4.002998 -3.32544,-6.514752 -8.29415,-6.934762 l -1.95991,-0.165671 v 7.694978 7.694975 l 0.8599,0.09355 c 1.86623,0.203028 3.79362,-0.11611 5.44005,-0.900762 z M -1.6344601,104.77705 V 62.827187 l 30.2286461,0.105588 c 32.575368,0.113786 32.357405,0.104779 37.107813,1.533269 8.455449,2.542624 14.542374,7.964707 16.90296,15.05671 1.847612,5.550823 1.275556,11.999331 -1.472248,16.595755 -1.064551,1.780746 -4.157953,5.135061 -6.160135,6.679751 -0.805947,0.62178 -1.461982,1.20533 -1.457854,1.29677 0.0042,0.0915 0.656563,0.55906 1.449864,1.03915 2.293725,1.38809 5.047721,3.69919 6.493774,5.44944 5.420572,6.56084 6.00329,16.46303 1.413484,24.01866 -4.231825,6.96637 -12.26738,10.84224 -24.578178,11.85506 -1.82507,0.15015 -15.240006,0.26299 -31.551563,0.26539 l -28.3765631,0.004 z M 43.218019,127.2799 c 2.207694,-0.72787 3.663823,-1.97687 4.657228,-3.99479 0.801423,-1.62791 0.874845,-1.98634 0.883735,-4.3142 0.01243,-3.22697 -0.546947,-4.96142 -2.100792,-6.51526 -1.638027,-1.63803 -3.55187,-2.28627 -7.216087,-2.44415 l -2.976563,-0.12825 v 8.85274 c 0,4.86901 0.0893,8.94586 0.198438,9.05969 0.322487,0.33632 5.113009,-0.0407 6.554041,-0.51578 z m -0.25863,-32.262624 c 2.924683,-0.87961 4.669822,-3.356026 4.841034,-6.869603 0.118454,-2.430589 -0.176609,-3.619182 -1.274763,-5.135128 -1.562404,-2.156839 -5.201864,-3.472527 -8.53545,-3.085624 l -1.52467,0.176956 v 7.819199 7.819198 l 2.579688,-0.161822 c 1.418828,-0.089 3.180202,-0.342432 3.914161,-0.563176 z M 216.38221,104.79046 V 62.854003 h 18.91771 18.91771 v 31.220835 31.220832 h 16.13958 16.13958 v 10.71563 10.71562 H 251.4395 216.38221 Z m 80.69792,0 V 62.854003 H 332.402 367.72388 V 73.569628 84.285254 H 351.5843 335.44471 v 5.027083 5.027084 h 11.24479 11.2448 v 10.451039 10.45105 h -11.2448 -11.24479 v 5.02708 5.02708 h 16.13959 16.13958 v 10.71563 10.71562 H 332.402 297.08013 Z m -151.47396,25.56919 c -1.30972,-0.809 -1.78964,-1.53403 -1.9054,-2.87848 -0.19177,-2.22733 1.37316,-3.8171 3.75748,-3.8171 4.07956,0 5.28587,4.9331 1.6668,6.81612 -0.99293,0.51661 -2.57511,0.46242 -3.51888,-0.12054 z m -219.148425,-5.74044 c -0.679985,-0.47628 -0.765837,-1.74882 -0.311367,-4.6152 0.333078,-2.10076 1.75742,-7.25849 2.293255,-8.30419 0.215196,-0.41996 1.966166,-2.32496 3.891047,-4.23333 3.922728,-3.8891 4.531635,-4.85479 4.299106,-6.81814 -0.161237,-1.361406 -0.87575,-3.133929 -1.263301,-3.133929 -0.127878,0 -1.301977,1.061352 -2.609104,2.35856 -2.727999,2.707289 -3.427362,3.032079 -6.224889,2.890809 -2.923156,-0.14762 -3.767931,-1.22216 -2.448724,-3.114761 0.439603,-0.630674 1.166275,-1.084985 2.778233,-1.736931 1.200608,-0.485577 2.497146,-1.111761 2.881197,-1.391523 0.38405,-0.27976 1.67691,-2.045828 2.873023,-3.924594 2.352521,-3.695161 4.007797,-5.276811 6.961243,-6.651604 1.572244,-0.731859 2.572295,-0.680239 4.345321,0.22429 1.703771,0.869201 7.071556,6.653337 7.806277,8.411774 0.831453,1.989947 0.28556,6.717929 -0.952135,8.246409 -0.464116,0.57316 -0.566909,0.59176 -1.584946,0.28675 -0.598753,-0.17939 -1.195242,-0.53033 -1.325531,-0.77986 -0.141304,-0.27062 -0.125757,-1.60685 0.03853,-3.311519 l 0.275421,-2.857826 -1.289672,-1.309362 c -0.709322,-0.720148 -1.440709,-1.309362 -1.625309,-1.309362 -0.570182,0 -0.660191,1.123868 -0.341191,4.260183 0.168712,1.658721 0.396862,5.102996 0.507003,7.653946 0.18661,4.3221 0.252515,4.75472 0.967338,6.35 0.462081,1.03123 1.650211,2.76394 2.988143,4.35775 2.474603,2.94787 3.190282,4.32128 3.397948,6.5208 0.12758,1.35128 0.08442,1.52401 -0.452641,1.81144 -0.368112,0.19701 -1.029372,0.25239 -1.74044,0.14576 -0.958379,-0.14372 -1.373531,-0.41957 -2.527136,-1.67916 -1.794475,-1.95933 -2.612305,-3.09654 -4.362442,-6.06607 -1.252117,-2.12453 -3.272306,-7.2342 -3.284265,-8.30691 -0.0021,-0.19985 -0.107447,-0.52658 -0.23382,-0.72608 -0.179596,-0.28351 -0.568701,-0.0975 -1.781887,0.85172 -0.853665,0.66793 -2.084871,1.60881 -2.736014,2.09084 -1.900377,1.40679 -2.574216,2.61192 -3.188631,5.70273 -0.499107,2.51074 -1.830067,6.95486 -2.412513,8.05545 -0.322805,0.60997 -2.759954,0.64453 -3.607128,0.0511 z M 145.44686,119.9287 c -0.51369,-0.34538 -1.03439,-0.99748 -1.21483,-1.52136 -0.44964,-1.3055 -0.44964,-30.161586 0,-31.46709 0.86635,-2.515362 4.92696,-2.877572 6.13217,-0.546989 0.58986,1.140687 0.60486,31.391369 0.0161,32.529869 -0.80291,1.55263 -3.34825,2.07143 -4.93348,1.00557 z M -62.830596,84.261473 c -1.357824,-0.716592 -2.037303,-1.899952 -2.037303,-3.548094 0,-1.727552 0.727446,-2.919207 2.1863,-3.581448 1.400366,-0.635691 2.153245,-0.639077 3.52552,-0.01585 2.949366,1.339459 3.004484,5.691014 0.09091,7.177408 -1.285505,0.655815 -2.481387,0.64565 -3.765431,-0.03201 z"
         id="path149" />
    </g>
  </g>
</svg>
