<?xml version="1.0" encoding="utf-8"?>
<!DOCTYPE svg PUBLIC "-//W3C//DTD SVG 1.0//EN" "http://www.w3.org/TR/2001/REC-SVG-20010904/DTD/svg10.dtd">
<svg version="1.0" id="Calque_1" xmlns="http://www.w3.org/2000/svg" xmlns:xlink="http://www.w3.org/1999/xlink" x="0px" y="0px"
	 width="349px" height="80px" viewBox="0 0 349 80" enable-background="new 0 0 349 80" xml:space="preserve">
<path fill="#AD9257" d="M48.856,79.932V36.47L21.67,79.941L48.856,79.932z M98.01,79.897V36.429L70.826,79.907L98.01,79.897z"/>
<path fill="#0055B8" d="M110.44,14.843l9.28,0.024V80h18.629V14.867h20.037V0h-39.177L110.44,14.843z M70.774,36.481L92.553,0
	H70.774V36.481z M0,69.497L42.941,0H0V69.497z"/>
<rect x="171.242" y="57.503" fill="#AD9257" width="177.578" height="21.97"/>
<path fill="#FFFFFF" d="M177.045,75.126h0.406c2.74,0,3.085-1.914,3.085-6.307c0-5.22-0.55-6.31-3.249-6.31h-0.242V75.126z
	 M175.625,61.224h1.542c2.922,0,4.829,0.36,4.829,7.596c0,5.946-0.976,7.597-4.729,7.597h-1.643V61.224z M197.818,62.51h-3.388
	v5.362h3.288v1.29h-3.288v5.964h3.388v1.29h-4.806V61.224h4.806V62.51z M210.315,67.854h0.549c1.987,0,2.229-0.728,2.29-2.684
	c0-2.096-0.566-2.66-2.555-2.66h-0.284V67.854z M208.896,76.416V61.224h1.584c2.188,0,4.137,0.198,4.137,3.946
	c0,2.944-1.035,3.972-3.935,3.972h-0.366v7.274H208.896z M231.533,71.6c0,2.801-0.223,5.02-3.204,5.02
	c-3.063,0-3.206-2.3-3.206-5.02V61.224h1.42v10.294c0,2.521,0.144,3.729,1.786,3.729c1.624,0,1.786-1.208,1.786-3.729V61.224h1.418
	V71.6z M242.936,61.224h1.421v15.192h-1.421V61.224z M261.135,63.619c-0.611-0.683-1.281-1.229-2.254-1.229
	c-1.421,0-2.211,1.168-2.211,2.458c0,1.774,1.298,2.599,2.617,3.487c1.298,0.907,2.595,1.873,2.595,3.971
	c0,2.216-1.439,4.313-3.833,4.313c-0.853,0-1.725-0.241-2.413-0.767v-1.835c0.649,0.685,1.501,1.229,2.474,1.229
	c1.501,0,2.333-1.312,2.313-2.68c0.021-1.773-1.297-2.559-2.595-3.467c-1.3-0.888-2.618-1.872-2.618-4.049
	c0-2.035,1.258-4.032,3.51-4.032c0.913,0,1.683,0.302,2.416,0.808V63.619z M289.898,76.416h-1.38V62.553h-2.009l0.305-1.329h3.084
	V76.416z M304.667,65.532c0,1.172,0.222,3.065,1.784,3.065c1.523,0,1.767-1.975,1.767-3.104c0-1.148-0.264-3.183-1.886-3.183
	C304.706,62.311,304.667,64.405,304.667,65.532z M307.569,69.345l-0.042-0.042c-0.448,0.34-0.893,0.523-1.501,0.523
	c-2.536,0-2.74-3.406-2.74-4.493c0-3.103,1.301-4.313,3.025-4.313c2.596,0,3.286,2.259,3.286,4.415c0,2.013-0.57,3.85-1.32,5.704
	l-2.212,5.277h-1.479L307.569,69.345z M324.019,75.327c1.625,0,1.664-2.176,1.664-3.242c0-1.169-0.22-3.066-1.784-3.066
	c-1.521,0-1.764,1.979-1.764,3.124C322.135,73.292,322.377,75.327,324.019,75.327z M322.761,68.294l0.041,0.042
	c0.446-0.344,0.913-0.545,1.523-0.545c2.231,0,2.738,2.802,2.738,4.492c0,2.036-0.529,4.336-3.025,4.336
	c-2.596,0-3.285-2.259-3.285-4.416c0-2.035,0.549-3.847,1.319-5.701l2.211-5.278h1.48L322.761,68.294z M342.076,66.502l0.203-3.045
	h-0.063l-2.861,7.659h2.721V66.502z M343.454,71.116h1.137v1.21h-1.137v4.09h-1.378v-4.09h-4.061v-1.432l4.101-9.671h1.338V71.116z"
	/>
<path fill="#0055B8" d="M327.479,22.391l15.527,19.375l2.901-18.2H349l-4.089,25.649l-15.526-19.375l-2.932,18.364h-3.09
	L327.479,22.391z M304.313,29.253l-5.996,9.965h8.814L304.313,29.253z M296.588,42.028l-3.814,6.177h-3.321l15.936-25.683
	l7.746,25.683h-3.322l-1.844-6.177H296.588z M278.991,48.205h-3.09l3.928-24.638h3.089L278.991,48.205z M254.844,35.232h0.987
	c3.157,0,6.673-0.587,7.297-4.508c0.615-3.856-2.98-4.411-6.038-4.411h-0.822L254.844,35.232z M265.112,48.205h-3.75l-5.641-10.424
	h-1.283l-1.661,10.424h-3.093l3.929-24.638h3.749c2.205,0,4.567,0.032,6.363,1.144c1.879,1.209,2.693,3.528,2.32,5.881
	c-0.564,3.53-3.401,6.469-7.055,6.895L265.112,48.205z M228.531,35.232h0.984c3.16,0,6.675-0.587,7.301-4.508
	c0.615-3.856-2.98-4.411-6.039-4.411h-0.822L228.531,35.232z M238.798,48.205h-3.751l-5.641-10.424h-1.281l-1.662,10.424h-3.092
	l3.928-24.638h3.75c2.203,0,4.566,0.032,6.362,1.144c1.879,1.209,2.695,3.528,2.32,5.881c-0.563,3.53-3.399,6.469-7.055,6.895
	L238.798,48.205z M199.507,23.567l-2.319,14.541c-0.64,4.017-0.017,7.743,4.753,7.743s6.58-3.726,7.22-7.743l2.318-14.541h3.092
	l-2.484,15.585c-0.866,5.426-4.915,9.575-10.605,9.575c-5.689,0-8.417-4.149-7.552-9.575l2.484-15.585H199.507z M176.139,48.205
	h-3.092l3.481-21.828h-5.889l0.447-2.81h14.866l-0.446,2.81h-5.89L176.139,48.205z"/>
<path fill="#1D1D1B" d="M348.979,1.381h-3.139v4.967h3.045v1.195h-3.045v5.527h3.139v1.194h-4.455V0.187h4.455V1.381z
	 M336.293,0.187h1.316v14.078h-1.316V0.187z M326.557,6.833h3.233v2.596c0,2.222-0.113,5.023-3.046,5.023
	c-2.988,0-3.27-3.118-3.27-7.562c0-3.324,0.393-6.89,3.402-6.89c1.69,0,2.537,1.121,2.895,2.651l-1.297,0.504
	c-0.151-0.84-0.508-1.885-1.542-1.885c-1.956,0.019-2.107,3.024-2.107,5.508c0,5.209,0.66,6.403,2.03,6.403
	c1.486,0,1.619-1.082,1.619-4.088V8.029h-1.918V6.833z M317.329,1.381h-3.142v4.967h3.046v1.195h-3.046v5.527h3.142v1.194h-4.456
	V0.187h4.456V1.381z M302.366,6.312h0.469c1.844,0,2.145-0.635,2.145-2.484c0-2.222-0.678-2.446-2.349-2.446h-0.265V6.312z
	 M301.051,14.265V0.187h1.409c1.974,0,3.873,0.15,3.873,3.585c0,1.792-0.395,3.547-2.668,3.622l3.137,6.871h-1.391l-3.007-6.89
	h-0.038v6.89H301.051z M285.433,5.788c0.883-0.69,1.842-1.793,1.842-2.969c0-0.764-0.545-1.456-1.316-1.456
	c-0.939,0-1.521,0.709-1.521,1.644c0,0.952,0.487,1.848,0.921,2.651L285.433,5.788z M285.058,7.711
	c-0.735,0.766-1.411,1.792-1.411,2.875c0,1.233,0.771,2.595,2.106,2.688c0.675-0.019,1.296-0.279,1.896-0.84L285.058,7.711z
	 M288.178,13.5c-0.66,0.597-1.506,0.952-2.37,0.952c-2.143,0-3.419-1.904-3.419-3.883c0-1.625,0.882-2.951,2.084-3.978l-0.056-0.112
	c-0.563-1.026-1.239-2.296-1.239-3.492c0-1.568,1.259-2.8,2.743-2.8c1.542,0,2.61,1.12,2.61,2.707c0,1.588-1.294,2.838-2.385,3.81
	l-0.113,0.093l2.444,4.667l0.883-1.082l0.095-0.131l0.883,0.858l-1.259,1.438l0.884,1.717h-1.372L288.178,13.5z M271.316,1.381
	h-3.139v4.967h3.046v1.195h-3.046v5.527h3.139v1.194h-4.455V0.187h4.455V1.381z M256.357,6.312h0.469
	c1.841,0,2.142-0.635,2.142-2.484c0-2.222-0.677-2.446-2.35-2.446h-0.261V6.312z M255.039,14.265V0.187h1.411
	c1.973,0,3.871,0.15,3.871,3.585c0,1.792-0.396,3.547-2.669,3.622l3.138,6.871h-1.389l-3.008-6.89h-0.036v6.89H255.039z
	 M246.809,0.187h1.315v14.078h-1.315V0.187z M238.875,10.232l-0.938-5.396c-0.17-0.952-0.246-1.923-0.357-2.875h-0.076
	c-0.132,0.953-0.224,1.923-0.375,2.875l-0.827,5.396H238.875z M241.02,14.265h-1.409l-0.527-2.895h-3.007l-0.508,2.895h-1.41
	l2.782-14.078h1.24L241.02,14.265z M227.054,0.187h1.316v14.078h-1.316V0.187z M220.702,13.873c-0.49,0.336-1.184,0.579-1.804,0.579
	c-3.328,0-3.816-4.313-3.816-6.722c0-2.277,0.076-7.73,3.946-7.73c0.526,0,1.241,0.13,1.674,0.448v1.438
	c-0.526-0.354-0.997-0.616-1.654-0.616c-2.294,0-2.613,3.305-2.613,5.918c0,1.643,0,5.993,2.519,5.993
	c0.641,0,1.241-0.28,1.749-0.634V13.873z M208.634,9.803c0,2.595-0.205,4.649-2.969,4.649c-2.839,0-2.971-2.129-2.971-4.649V0.187
	h1.315v9.541c0,2.334,0.133,3.454,1.655,3.454c1.504,0,1.655-1.119,1.655-3.454V0.187h1.313V9.803z M191.662,13.07h0.375
	c2.54,0,2.86-1.774,2.86-5.844c0-4.836-0.511-5.845-3.01-5.845h-0.226V13.07z M190.346,0.187h1.431c2.706,0,4.473,0.336,4.473,7.039
	c0,5.508-0.903,7.039-4.38,7.039h-1.523V0.187z M182.114,0.187h1.316v14.078h-1.316V0.187z M175.536,1.381h-3.213v4.967h3.046v1.195
	h-3.046v6.721h-1.317V0.187h4.53V1.381z"/>
</svg>
