<?xml version="1.0" encoding="UTF-8" standalone="no"?>
<!-- Created with Inkscape (http://www.inkscape.org/) -->

<svg xmlns:dc="http://purl.org/dc/elements/1.1/" xmlns:cc="http://creativecommons.org/ns#" xmlns:rdf="http://www.w3.org/1999/02/22-rdf-syntax-ns#" xmlns:svg="http://www.w3.org/2000/svg" xmlns="http://www.w3.org/2000/svg" xmlns:sodipodi="http://sodipodi.sourceforge.net/DTD/sodipodi-0.dtd" xmlns:inkscape="http://www.inkscape.org/namespaces/inkscape" width="744.95709" height="620.1275" id="svg22350" version="1.1" inkscape:version="0.48.1 " sodipodi:docname="Nouveau document 16">
  <defs id="defs22352" />
  <sodipodi:namedview inkscape:document-units="mm" pagecolor="#ffffff" bordercolor="#666666" borderopacity="1.0" inkscape:pageopacity="0.0" inkscape:pageshadow="2" inkscape:zoom="0.43415836" inkscape:cx="436.49438" inkscape:cy="295.04659" inkscape:current-layer="layer1" id="namedview22354" showgrid="false" units="mm" fit-margin-top="0" fit-margin-left="0" fit-margin-right="0" fit-margin-bottom="0" inkscape:window-width="1366" inkscape:window-height="716" inkscape:window-x="-8" inkscape:window-y="-8" inkscape:window-maximized="1" />
  <metadata id="metadata22356">
    <rdf:RDF>
      <cc:Work rdf:about="">
        <dc:format>image/svg+xml</dc:format>
        <dc:type rdf:resource="http://purl.org/dc/dcmitype/StillImage" />
        <dc:title></dc:title>
      </cc:Work>
    </rdf:RDF>
  </metadata>
  <g inkscape:label="Layer 1" inkscape:groupmode="layer" id="layer1" transform="translate(-53.505615,-39.013596)">
    <g id="g22176" transform="matrix(7.2791747,0,0,-7.2791747,440.74224,39.035434)">
      <path inkscape:connector-curvature="0" d="M 0,0 C -0.688,-1.371 -1.216,-4.039 -1.263,-9.041 -1.216,-14.043 -0.688,-16.711 0,-18.082 L 0,-18.08 C 0.688,-16.708 1.217,-14.04 1.263,-9.038 1.217,-4.037 0.688,-1.369 0,0.003" style="fill:#e42343;fill-opacity:1;fill-rule:nonzero;stroke:none" id="path22178" />
    </g>
    <g id="g22180" transform="matrix(7.2791747,0,0,-7.2791747,365.37367,361.72853)">
      <path inkscape:connector-curvature="0" d="M 0,0 C 2.169,0 2.883,-1.517 2.883,-2.571 2.883,-3.611 2.282,-4.564 0.978,-4.803 L 0.978,-4.827 C 1.442,-5.028 1.642,-5.354 1.88,-5.831 L 3.197,-8.552 1.191,-8.552 0.376,-6.821 C -0.352,-5.279 -0.552,-5.091 -1.443,-5.091 L -1.831,-5.091 -2.308,-8.552 -4.126,-8.552 -2.935,0 0,0 z M -1.643,-3.762 -0.74,-3.762 C 0.488,-3.762 1.003,-3.148 1.003,-2.521 1.003,-1.843 0.476,-1.43 -0.427,-1.43 L -1.317,-1.43 -1.643,-3.762" style="fill:black;fill-opacity:1;fill-rule:nonzero;stroke:none" id="path22182" />
    </g>
    <g id="g22184" transform="matrix(7.2791747,0,0,-7.2791747,424.05837,424.79532)">
      <path inkscape:connector-curvature="0" d="M 0,0 C -2.483,0 -4.313,1.629 -4.313,3.974 -4.313,6.745 -2.182,8.777 0.715,8.777 3.21,8.777 4.928,7.172 4.928,4.877 4.928,1.931 2.833,0 0,0 M 0.589,7.197 C -1.066,7.197 -2.433,5.78 -2.433,4.062 -2.433,2.595 -1.43,1.579 0.012,1.579 1.705,1.579 3.047,2.984 3.047,4.752 3.047,6.169 2.019,7.197 0.589,7.197" style="fill:black;fill-opacity:1;fill-rule:nonzero;stroke:none" id="path22186" />
    </g>
    <g id="g22188" transform="matrix(7.2791747,0,0,-7.2791747,543.16751,423.98005)">
      <path inkscape:connector-curvature="0" d="M 0,0 -1.755,0 -2.019,5.781 -2.044,5.781 -5.216,0 -6.081,0 -7.586,5.944 -7.611,5.944 -9.542,0 -11.373,0 -8.589,8.552 -6.595,8.552 -5.216,3.173 -2.332,8.552 -0.401,8.552 0,0" style="fill:black;fill-opacity:1;fill-rule:nonzero;stroke:none" id="path22190" />
    </g>
    <g id="g22192" transform="matrix(7.2791747,0,0,-7.2791747,603.13335,423.98005)">
      <path inkscape:connector-curvature="0" d="M 0,0 -1.868,0 -2.132,1.869 -4.79,1.869 -5.617,0 -7.623,0 -3.436,8.665 -1.505,8.665 0,0 z M -4.263,3.085 -2.282,3.085 -2.733,6.872 -2.759,6.872 -4.263,3.085" style="fill:black;fill-opacity:1;fill-rule:nonzero;stroke:none" id="path22194" />
    </g>
    <g id="g22196" transform="matrix(7.2791747,0,0,-7.2791747,668.48578,423.98005)">
      <path inkscape:connector-curvature="0" d="M 0,0 -1.73,0 -5.241,5.793 -5.267,5.793 -6.069,0 -7.887,0 -6.683,8.552 -4.865,8.552 -1.417,2.972 -1.392,2.972 -0.627,8.552 1.191,8.552 0,0" style="fill:black;fill-opacity:1;fill-rule:nonzero;stroke:none" id="path22198" />
    </g>
    <g id="g22200" transform="matrix(7.2791747,0,0,-7.2791747,712.47383,361.72853)">
      <path inkscape:connector-curvature="0" d="M 0,0 C 3.411,0 4.414,-2.307 4.414,-4.163 4.414,-6.709 2.659,-8.552 0.377,-8.552 L -4.037,-8.552 -2.846,0 0,0 z M -2.018,-7.122 -0.313,-7.122 C 1.706,-7.122 2.534,-5.618 2.534,-4.138 2.534,-2.633 1.53,-1.43 -0.351,-1.43 L -1.228,-1.43 -2.018,-7.122" style="fill:black;fill-opacity:1;fill-rule:nonzero;stroke:none" id="path22202" />
    </g>
    <g id="g22204" transform="matrix(7.2791747,0,0,-7.2791747,795.99508,372.13774)">
      <path inkscape:connector-curvature="0" d="M 0,0 -3.524,0 -3.812,-2.019 -0.715,-2.019 -0.916,-3.448 -4.013,-3.448 -4.326,-5.692 0.112,-5.692 -0.088,-7.122 -6.345,-7.122 -5.141,1.43 0.2,1.43 0,0" style="fill:black;fill-opacity:1;fill-rule:nonzero;stroke:none" id="path22206" />
    </g>
    <g id="g22208" transform="matrix(7.2791747,0,0,-7.2791747,381.43152,459.93189)">
      <path inkscape:connector-curvature="0" d="M 0,0 -3.523,0 -3.812,-2.019 -0.714,-2.019 -0.915,-3.448 -4.012,-3.448 -4.326,-5.693 0.113,-5.693 -0.088,-7.122 -6.344,-7.122 -5.141,1.429 0.201,1.429 0,0" style="fill:black;fill-opacity:1;fill-rule:nonzero;stroke:none" id="path22210" />
    </g>
    <g id="g22212" transform="matrix(7.2791747,0,0,-7.2791747,459.37693,511.77418)">
      <path inkscape:connector-curvature="0" d="M 0,0 -1.73,0 -5.241,5.793 -5.266,5.793 -6.068,0 -7.886,0 -6.683,8.551 -4.865,8.551 -1.417,2.972 -1.391,2.972 -0.627,8.551 1.192,8.551 0,0" style="fill:black;fill-opacity:1;fill-rule:nonzero;stroke:none" id="path22214" />
    </g>
    <g id="g22216" transform="matrix(7.2791747,0,0,-7.2791747,533.67546,459.93189)">
      <path inkscape:connector-curvature="0" d="M 0,0 -3.524,0 -3.812,-2.019 -0.715,-2.019 -0.916,-3.448 -4.013,-3.448 -4.326,-5.693 0.113,-5.693 -0.088,-7.122 -6.345,-7.122 -5.141,1.429 0.201,1.429 0,0" style="fill:black;fill-opacity:1;fill-rule:nonzero;stroke:none" id="path22218" />
    </g>
    <g id="g22220" transform="matrix(7.2791747,0,0,-7.2791747,585.15379,449.52995)">
      <path inkscape:connector-curvature="0" d="M 0,0 C 2.169,0 2.884,-1.517 2.884,-2.57 2.884,-3.611 2.282,-4.564 0.978,-4.802 L 0.978,-4.827 C 1.442,-5.028 1.642,-5.354 1.881,-5.83 L 3.197,-8.551 1.191,-8.551 0.376,-6.821 C -0.351,-5.278 -0.552,-5.09 -1.442,-5.09 L -1.831,-5.09 -2.307,-8.551 -4.126,-8.551 -2.934,0 0,0 z M -1.643,-3.761 -0.74,-3.761 C 0.489,-3.761 1.003,-3.147 1.003,-2.52 1.003,-1.843 0.476,-1.429 -0.427,-1.429 L -1.317,-1.429 -1.643,-3.761" style="fill:black;fill-opacity:1;fill-rule:nonzero;stroke:none" id="path22222" />
    </g>
    <g id="g22224" transform="matrix(7.2791747,0,0,-7.2791747,687.01128,462.48688)">
      <path inkscape:connector-curvature="0" d="M 0,0 C -0.84,0.226 -1.492,0.313 -2.27,0.313 -4.777,0.313 -6.545,-1.003 -6.545,-2.959 -6.545,-4.539 -5.354,-5.304 -3.824,-5.304 -3.361,-5.304 -3.047,-5.266 -2.545,-5.141 L -2.332,-3.624 -3.899,-3.624 -3.711,-2.269 -0.326,-2.269 -0.941,-6.633 C -1.429,-6.771 -2.683,-6.884 -3.599,-6.884 -7.16,-6.884 -8.426,-4.89 -8.426,-3.022 -8.426,-0.865 -6.758,1.893 -2.27,1.893 -1.329,1.893 -0.464,1.78 0.213,1.58 L 0,0" style="fill:black;fill-opacity:1;fill-rule:nonzero;stroke:none" id="path22226" />
    </g>
    <g id="g22228" transform="matrix(7.2791747,0,0,-7.2791747,720.874,511.77418)">
      <path inkscape:connector-curvature="0" d="M 0,0 -1.819,0 -0.615,8.551 1.203,8.551 0,0" style="fill:black;fill-opacity:1;fill-rule:nonzero;stroke:none" id="path22230" />
    </g>
    <g id="g22232" transform="matrix(7.2791747,0,0,-7.2791747,795.80582,459.93189)">
      <path inkscape:connector-curvature="0" d="M 0,0 -3.523,0 -3.812,-2.019 -0.714,-2.019 -0.915,-3.448 -4.012,-3.448 -4.326,-5.693 0.113,-5.693 -0.088,-7.122 -6.345,-7.122 -5.141,1.429 0.201,1.429 0,0" style="fill:black;fill-opacity:1;fill-rule:nonzero;stroke:none" id="path22234" />
    </g>
    <g id="g22236" transform="matrix(7.2791747,0,0,-7.2791747,264.79728,493.75822)">
      <path inkscape:connector-curvature="0" d="M 0,0 C 0,19.364 14.774,35.88 34.434,37.673 35.468,37.767 36.495,37.817 37.516,37.828 L 37.532,37.957 C 34.585,38.778 31.49,39.216 28.311,39.216 27.264,39.216 26.208,39.169 25.145,39.071 7.239,37.438 -6.217,22.395 -6.217,4.758 -6.217,3.709 -6.17,2.65 -6.072,1.583 -5.157,-8.437 -0.042,-17.064 7.376,-22.72 L 7.468,-22.628 C 3.448,-17.225 0.817,-10.683 0.16,-3.485 0.053,-2.314 0,-1.152 0,0 M 73.314,-5.385 9.543,-5.385 9.543,-6.8449 73.314,-6.8449 73.314,-5.385 z M 9.543,-5.385 z M -20.702,36.816 C -19.954,35.45 -18.005,33.502 -13.809,30.69 -9.558,27.962 -6.994,26.951 -5.415,26.8 -5.413,26.8 -5.411,26.8 -5.409,26.8 -5.381,26.8 -5.356,26.817 -5.347,26.845 -5.337,26.874 -5.348,26.906 -5.376,26.922 L -5.377,26.923 C -6.123,28.287 -8.07,30.234 -12.266,33.046 L -12.302,32.991 -12.267,33.046 C -16.518,35.774 -19.08,36.785 -20.658,36.935 -20.688,36.939 -20.715,36.922 -20.726,36.894 -20.736,36.867 -20.728,36.835 -20.704,36.817 L -20.702,36.816 z M -19.839,-4.791 -19.84,-4.856 -19.841,-4.791 C -24.892,-4.84 -27.588,-5.4 -28.992,-6.14 -29.019,-6.155 -29.032,-6.185 -29.025,-6.214 -29.019,-6.238 -29,-6.256 -28.977,-6.262 -27.571,-6.999 -24.875,-7.556 -19.839,-7.605 -14.786,-7.556 -12.09,-6.996 -10.686,-6.256 -10.66,-6.241 -10.647,-6.212 -10.654,-6.183 -10.659,-6.16 -10.676,-6.143 -10.697,-6.136 -12.102,-5.398 -14.797,-4.84 -19.839,-4.791" style="fill:#e42343;fill-opacity:1;fill-rule:nonzero;stroke:none" id="path22238" />
    </g>
  </g>
</svg>
