<?xml version="1.0" encoding="utf-8"?>
<!-- Generator: Adobe Illustrator 20.1.0, SVG Export Plug-In . SVG Version: 6.00 Build 0)  -->
<svg version="1.1" id="Ebene_1" xmlns="http://www.w3.org/2000/svg" xmlns:xlink="http://www.w3.org/1999/xlink" x="0px" y="0px"
	 viewBox="0 0 309 127.6" style="enable-background:new 0 0 309 127.6;" xml:space="preserve">
<style type="text/css">
	.st0{fill:#FFFFFF;}
	.st1{fill:#E30613;}
</style>
<g>
	<path class="st0" d="M17.3,113.7c0.9-0.2,2.3-0.3,3.6-0.3c1.9,0,3.2,0.3,4.1,1.1c0.7,0.6,1.1,1.5,1.1,2.6c0,1.7-1.2,2.9-2.4,3.3
		v0.1c0.9,0.4,1.5,1.3,1.8,2.5c0.4,1.6,0.8,3.2,1,3.7h-2.5c-0.2-0.4-0.5-1.5-0.9-3.1c-0.4-1.7-1-2.3-2.4-2.3h-1.2v5.4h-2.4V113.7z
		 M19.7,119.5h1.4c1.6,0,2.6-0.9,2.6-2.2c0-1.5-1-2.1-2.6-2.1c-0.8,0-1.3,0.1-1.5,0.1V119.5z"/>
	<path class="st0" d="M41.8,120c0,4.4-2.7,7-6.3,7c-3.7,0-6.1-2.8-6.1-6.7c0-4.1,2.5-6.9,6.3-6.9C39.5,113.3,41.8,116.2,41.8,120z
		 M31.9,120.2c0,2.7,1.4,4.8,3.7,4.8c2.3,0,3.6-2.2,3.6-4.9c0-2.5-1.2-4.8-3.6-4.8C33.2,115.2,31.9,117.5,31.9,120.2z"/>
	<path class="st0" d="M47.8,123l-1.1,3.7h-2.5l4.2-13.2h3.1l4.3,13.2h-2.6L52,123H47.8z M51.5,121.2l-1-3.3
		c-0.3-0.8-0.5-1.7-0.7-2.5h0c-0.2,0.8-0.4,1.7-0.6,2.5l-1,3.3H51.5z"/>
	<path class="st0" d="M59.2,113.7c1.1-0.2,2.4-0.3,3.8-0.3c2.5,0,4.2,0.5,5.4,1.5c1.3,1,2.1,2.6,2.1,4.9c0,2.4-0.8,4.1-2.1,5.3
		c-1.3,1.2-3.4,1.8-6,1.8c-1.4,0-2.5-0.1-3.3-0.2V113.7z M61.6,124.9c0.3,0.1,0.8,0.1,1.3,0.1c3.1,0,5-1.7,5-5.1
		c0-2.9-1.7-4.6-4.7-4.6c-0.8,0-1.3,0.1-1.6,0.1V124.9z"/>
	<path class="st0" d="M79.7,124.1c0.8,0.5,2,0.8,3.2,0.8c1.5,0,2.4-0.7,2.4-1.8c0-1-0.7-1.6-2.4-2.2c-2.2-0.8-3.6-1.9-3.6-3.8
		c0-2.2,1.8-3.8,4.7-3.8c1.4,0,2.5,0.3,3.2,0.7l-0.6,1.9c-0.5-0.3-1.4-0.6-2.6-0.6c-1.5,0-2.2,0.8-2.2,1.6c0,1,0.8,1.5,2.5,2.2
		c2.3,0.9,3.4,2,3.4,3.9c0,2.1-1.6,4-5,4c-1.4,0-2.8-0.4-3.6-0.8L79.7,124.1z"/>
	<path class="st0" d="M94.1,123l-1.1,3.7h-2.5l4.2-13.2h3.1l4.3,13.2h-2.6l-1.2-3.7H94.1z M97.9,121.2l-1-3.3
		c-0.3-0.8-0.5-1.7-0.7-2.5h0c-0.2,0.8-0.4,1.7-0.6,2.5l-1,3.3H97.9z"/>
	<path class="st0" d="M105.5,113.5h7.6v2h-5.2v3.6h4.9v2h-4.9v5.6h-2.4V113.5z"/>
	<path class="st0" d="M124.5,120.9h-5v3.9h5.6v2h-8v-13.2h7.7v2h-5.3v3.4h5V120.9z"/>
	<path class="st0" d="M131.4,115.5h-3.8v-2h10v2h-3.8v11.2h-2.4V115.5z"/>
	<path class="st0" d="M144.1,126.7v-5.5l-4.2-7.7h2.7l1.6,3.4c0.5,1,0.8,1.7,1.1,2.6h0c0.3-0.8,0.7-1.7,1.2-2.6l1.6-3.4h2.7
		l-4.4,7.6v5.6H144.1z"/>
	<path class="st0" d="M159.5,124.1c0.8,0.5,2,0.8,3.2,0.8c1.5,0,2.4-0.7,2.4-1.8c0-1-0.7-1.6-2.4-2.2c-2.2-0.8-3.6-1.9-3.6-3.8
		c0-2.2,1.8-3.8,4.7-3.8c1.4,0,2.5,0.3,3.2,0.7l-0.6,1.9c-0.5-0.3-1.4-0.6-2.6-0.6c-1.5,0-2.2,0.8-2.2,1.6c0,1,0.8,1.5,2.5,2.2
		c2.3,0.9,3.4,2,3.4,3.9c0,2.1-1.6,4-5,4c-1.4,0-2.8-0.4-3.6-0.8L159.5,124.1z"/>
	<path class="st0" d="M183,120c0,4.4-2.7,7-6.3,7c-3.7,0-6.1-2.8-6.1-6.7c0-4.1,2.5-6.9,6.3-6.9C180.8,113.3,183,116.2,183,120z
		 M173.2,120.2c0,2.7,1.4,4.8,3.7,4.8c2.3,0,3.6-2.2,3.6-4.9c0-2.5-1.2-4.8-3.6-4.8C174.4,115.2,173.2,117.5,173.2,120.2z"/>
	<path class="st0" d="M186.7,113.5h2.4v11.2h5.4v2h-7.8V113.5z"/>
	<path class="st0" d="M199.7,113.5v7.7c0,2.6,1.1,3.8,2.7,3.8c1.7,0,2.8-1.2,2.8-3.8v-7.7h2.4v7.6c0,4.1-2.1,5.9-5.3,5.9
		c-3.1,0-5-1.7-5-5.9v-7.6H199.7z"/>
	<path class="st0" d="M214.4,115.5h-3.8v-2h10v2h-3.8v11.2h-2.4V115.5z"/>
	<path class="st0" d="M226.2,113.5v13.2h-2.4v-13.2H226.2z"/>
	<path class="st0" d="M242.2,120c0,4.4-2.7,7-6.3,7c-3.7,0-6.1-2.8-6.1-6.7c0-4.1,2.5-6.9,6.3-6.9
		C239.9,113.3,242.2,116.2,242.2,120z M232.4,120.2c0,2.7,1.4,4.8,3.7,4.8c2.3,0,3.6-2.2,3.6-4.9c0-2.5-1.2-4.8-3.6-4.8
		C233.6,115.2,232.4,117.5,232.4,120.2z"/>
	<path class="st0" d="M245.9,126.7v-13.2h2.7l3.4,5.7c0.9,1.5,1.6,3,2.3,4.4h0c-0.2-1.8-0.2-3.5-0.2-5.5v-4.6h2.2v13.2h-2.5
		l-3.5-5.8c-0.8-1.5-1.7-3.1-2.4-4.6l-0.1,0c0.1,1.7,0.1,3.5,0.1,5.6v4.7H245.9z"/>
	<path class="st0" d="M260.6,124.1c0.8,0.5,2,0.8,3.2,0.8c1.5,0,2.4-0.7,2.4-1.8c0-1-0.7-1.6-2.4-2.2c-2.2-0.8-3.6-1.9-3.6-3.8
		c0-2.2,1.8-3.8,4.7-3.8c1.4,0,2.5,0.3,3.2,0.7l-0.6,1.9c-0.5-0.3-1.4-0.6-2.6-0.6c-1.5,0-2.2,0.8-2.2,1.6c0,1,0.8,1.5,2.5,2.2
		c2.3,0.9,3.4,2,3.4,3.9c0,2.1-1.6,4-5,4c-1.4,0-2.8-0.4-3.6-0.8L260.6,124.1z"/>
	<path class="st0" d="M272.3,125.4c0-0.9,0.6-1.5,1.5-1.5c0.9,0,1.5,0.6,1.5,1.5c0,0.9-0.6,1.5-1.5,1.5
		C273,126.9,272.3,126.3,272.3,125.4z"/>
</g>
<g>
	<g>
		<path class="st1" d="M308.6,83.4V15.9c0-8-6.5-14.5-14.5-14.5H14.3c-8,0-14.5,6.5-14.5,14.5v67.5c0,8,6.5,14.5,14.5,14.5h279.8
			C302.1,97.9,308.6,91.4,308.6,83.4z"/>
		<path class="st0" d="M127.4,54.9v-8.7H92.7c-2.7,0-4.8,2.2-4.8,4.8l0,13.5l0,0c0,2.7,2.2,4.8,4.8,4.8H112v5.8H87.9v8.7h34.7
			c2.7,0,4.8-2.2,4.8-4.8c0,0,0,0,0,0l0-13.5c0-2.7-2.2-4.8-4.8-4.8l0,0h-19.3v-5.8H127.4z"/>
		<path class="st0" d="M174.7,54.9v-8.7H140c-2.7,0-4.8,2.2-4.8,4.8l0,13.5l0,0c0,2.7,2.2,4.8,4.8,4.8h19.3v5.8h-24.1v8.7h34.7
			c2.7,0,4.8-2.2,4.8-4.8c0,0,0,0,0,0l0-13.5c0-2.7-2.2-4.8-4.8-4.8l0,0h-19.3v-5.8H174.7z"/>
		<path class="st0" d="M222,69.4V51.1c0-2.7-2.2-4.8-4.8-4.8h-29.9c-2.7,0-4.8,2.2-4.8,4.8v28c0,2.6,2.1,4.7,4.7,4.8l0,0H222v-8.7
			h-24.1v-5.8H222z M197.9,54.9h8.7v5.8h-8.7V54.9z"/>
		<path class="st0" d="M253.8,83.9h15.4V51.1c0-2.7-2.2-4.8-4.8-4.8h-34.7v37.6h15.4V54.9h8.7V83.9z"/>
		<path class="st0" d="M41.6,83.9H57V51.1c0-2.7-2.2-4.8-4.8-4.8H17.5v37.6h15.4V54.9h8.7V83.9z"/>
		<path class="st0" d="M269.3,27.9h9.7v2.9h-3.4v7.7h-2.9v-7.7h-3.4V27.9z"/>
		<path class="st0" d="M280.4,27.9h3.8l1.5,6.5l1.5-6.5h3.8v10.6h-2.4v-8.1l-1.5,8.1h-2.8l-1.5-8.1v8.1h-2.4V27.9z"/>
		<circle class="st0" cx="72.4" cy="27" r="15.4"/>
	</g>
	<path class="st0" d="M72.4,47.8c-2.7,0-5.3-0.5-7.7-1.5h0v37.6h15.4V46.3h0C77.8,47.2,75.2,47.8,72.4,47.8z"/>
</g>
</svg>
